# MagicaVoxel @ Ephtracy

# group
o 

# material
mtllib money2.mtl
usemtl palette

# normals
vn -1 0 0
vn 1 0 0
vn 0 0 1
vn 0 0 -1
vn 0 -1 0
vn 0 1 0

# texcoords
vt 0.783203 0.5
vt 0.814453 0.5

# verts
v -0.4 0 0.1
v -0.4 0 -0.2
v -0.4 0.8 0.1
v -0.4 0.8 -0.2
v -0.2 0.2 0.1
v -0.2 0.2 0
v -0.2 0.3 0.1
v -0.2 0.3 0
v -0.2 0.4 0.1
v -0.2 0.4 0
v -0.2 0.4 -0.1
v -0.2 0.4 -0.2
v -0.2 0.6 0.1
v -0.2 0.6 0
v -0.2 0.6 -0.1
v -0.2 0.6 -0.2
v -0.1 0.2 -0.1
v -0.1 0.2 -0.2
v -0.1 0.3 -0.1
v -0.1 0.3 -0.2
v 0.1 0.4 0.1
v 0.1 0.4 0
v 0.1 0.4 -0.1
v 0.1 0.4 -0.2
v 0.1 0.6 0.1
v 0.1 0.6 0
v 0.1 0.6 -0.1
v 0.1 0.6 -0.2
v 0.3 0.1 0.1
v 0.3 0.1 0
v 0.3 0.1 -0.1
v 0.3 0.1 -0.2
v 0.3 0.7 0.1
v 0.3 0.7 0
v 0.3 0.7 -0.1
v 0.3 0.7 -0.2
v -0.3 0.1 0.1
v -0.3 0.1 0
v -0.3 0.1 -0.1
v -0.3 0.1 -0.2
v -0.3 0.7 0.1
v -0.3 0.7 0
v -0.3 0.7 -0.1
v -0.3 0.7 -0.2
v -0.1 0.4 0.1
v -0.1 0.4 0
v -0.1 0.4 -0.1
v -0.1 0.4 -0.2
v -0.1 0.6 0.1
v -0.1 0.6 0
v -0.1 0.6 -0.1
v -0.1 0.6 -0.2
v 0.1 0.2 -0.1
v 0.1 0.2 -0.2
v 0.1 0.3 -0.1
v 0.1 0.3 -0.2
v 0.2 0.2 0.1
v 0.2 0.2 0
v 0.2 0.3 0.1
v 0.2 0.3 0
v 0.2 0.4 0.1
v 0.2 0.4 0
v 0.2 0.4 -0.1
v 0.2 0.4 -0.2
v 0.2 0.6 0.1
v 0.2 0.6 0
v 0.2 0.6 -0.1
v 0.2 0.6 -0.2
v 0.4 0 0.1
v 0.4 0 -0.2
v 0.4 0.8 0.1
v 0.4 0.8 -0.2
v -0.4 0 0.1
v -0.4 0.8 0.1
v -0.3 0.1 0.1
v -0.3 0.7 0.1
v -0.2 0.2 0.1
v -0.2 0.3 0.1
v -0.2 0.4 0.1
v -0.2 0.6 0.1
v -0.1 0.4 0.1
v -0.1 0.6 0.1
v 0.1 0.4 0.1
v 0.1 0.6 0.1
v 0.2 0.2 0.1
v 0.2 0.3 0.1
v 0.2 0.4 0.1
v 0.2 0.6 0.1
v 0.3 0.1 0.1
v 0.3 0.7 0.1
v 0.4 0 0.1
v 0.4 0.8 0.1
v -0.3 0.1 0
v -0.3 0.7 0
v -0.2 0.2 0
v -0.2 0.3 0
v -0.2 0.4 0
v -0.2 0.6 0
v -0.1 0.4 0
v -0.1 0.6 0
v 0.1 0.4 0
v 0.1 0.6 0
v 0.2 0.2 0
v 0.2 0.3 0
v 0.2 0.4 0
v 0.2 0.6 0
v 0.3 0.1 0
v 0.3 0.7 0
v -0.3 0.1 -0.1
v -0.3 0.7 -0.1
v -0.2 0.4 -0.1
v -0.2 0.6 -0.1
v -0.1 0.2 -0.1
v -0.1 0.3 -0.1
v -0.1 0.4 -0.1
v -0.1 0.6 -0.1
v 0.1 0.2 -0.1
v 0.1 0.3 -0.1
v 0.1 0.4 -0.1
v 0.1 0.6 -0.1
v 0.2 0.4 -0.1
v 0.2 0.6 -0.1
v 0.3 0.1 -0.1
v 0.3 0.7 -0.1
v -0.4 0 -0.2
v -0.4 0.8 -0.2
v -0.3 0.1 -0.2
v -0.3 0.7 -0.2
v -0.2 0.4 -0.2
v -0.2 0.6 -0.2
v -0.1 0.2 -0.2
v -0.1 0.3 -0.2
v -0.1 0.4 -0.2
v -0.1 0.6 -0.2
v 0.1 0.2 -0.2
v 0.1 0.3 -0.2
v 0.1 0.4 -0.2
v 0.1 0.6 -0.2
v 0.2 0.4 -0.2
v 0.2 0.6 -0.2
v 0.3 0.1 -0.2
v 0.3 0.7 -0.2
v 0.4 0 -0.2
v 0.4 0.8 -0.2
v -0.4 0 0.1
v 0.4 0 0.1
v -0.4 0 -0.2
v 0.4 0 -0.2
v -0.2 0.2 0.1
v 0.2 0.2 0.1
v -0.2 0.2 0
v 0.2 0.2 0
v -0.1 0.2 -0.1
v 0.1 0.2 -0.1
v -0.1 0.2 -0.2
v 0.1 0.2 -0.2
v -0.2 0.4 0.1
v -0.1 0.4 0.1
v 0.1 0.4 0.1
v 0.2 0.4 0.1
v -0.2 0.4 0
v -0.1 0.4 0
v 0.1 0.4 0
v 0.2 0.4 0
v -0.2 0.4 -0.1
v -0.1 0.4 -0.1
v 0.1 0.4 -0.1
v 0.2 0.4 -0.1
v -0.2 0.4 -0.2
v -0.1 0.4 -0.2
v 0.1 0.4 -0.2
v 0.2 0.4 -0.2
v -0.3 0.7 0.1
v 0.3 0.7 0.1
v -0.3 0.7 0
v 0.3 0.7 0
v -0.3 0.7 -0.1
v 0.3 0.7 -0.1
v -0.3 0.7 -0.2
v 0.3 0.7 -0.2
v -0.3 0.1 0.1
v 0.3 0.1 0.1
v -0.3 0.1 0
v 0.3 0.1 0
v -0.3 0.1 -0.1
v 0.3 0.1 -0.1
v -0.3 0.1 -0.2
v 0.3 0.1 -0.2
v -0.2 0.3 0.1
v 0.2 0.3 0.1
v -0.2 0.3 0
v 0.2 0.3 0
v -0.1 0.3 -0.1
v 0.1 0.3 -0.1
v -0.1 0.3 -0.2
v 0.1 0.3 -0.2
v -0.2 0.6 0.1
v -0.1 0.6 0.1
v 0.1 0.6 0.1
v 0.2 0.6 0.1
v -0.2 0.6 0
v -0.1 0.6 0
v 0.1 0.6 0
v 0.2 0.6 0
v -0.2 0.6 -0.1
v -0.1 0.6 -0.1
v 0.1 0.6 -0.1
v 0.2 0.6 -0.1
v -0.2 0.6 -0.2
v -0.1 0.6 -0.2
v 0.1 0.6 -0.2
v 0.2 0.6 -0.2
v -0.4 0.8 0.1
v 0.4 0.8 0.1
v -0.4 0.8 -0.2
v 0.4 0.8 -0.2

# faces
f 3/2/1 2/2/1 1/2/1
f 4/2/1 2/2/1 3/2/1
f 7/1/1 6/1/1 5/1/1
f 8/1/1 6/1/1 7/1/1
f 13/1/1 10/1/1 9/1/1
f 14/1/1 10/1/1 13/1/1
f 15/1/1 12/1/1 11/1/1
f 16/1/1 12/1/1 15/1/1
f 19/1/1 18/1/1 17/1/1
f 20/1/1 18/1/1 19/1/1
f 25/1/1 22/1/1 21/1/1
f 26/1/1 22/1/1 25/1/1
f 27/1/1 24/1/1 23/1/1
f 28/1/1 24/1/1 27/1/1
f 33/2/1 30/2/1 29/2/1
f 34/2/1 30/2/1 33/2/1
f 35/2/1 32/2/1 31/2/1
f 36/2/1 32/2/1 35/2/1
f 37/2/2 38/2/2 41/2/2
f 41/2/2 38/2/2 42/2/2
f 39/2/2 40/2/2 43/2/2
f 43/2/2 40/2/2 44/2/2
f 45/1/2 46/1/2 49/1/2
f 49/1/2 46/1/2 50/1/2
f 47/1/2 48/1/2 51/1/2
f 51/1/2 48/1/2 52/1/2
f 53/1/2 54/1/2 55/1/2
f 55/1/2 54/1/2 56/1/2
f 57/1/2 58/1/2 59/1/2
f 59/1/2 58/1/2 60/1/2
f 61/1/2 62/1/2 65/1/2
f 65/1/2 62/1/2 66/1/2
f 63/1/2 64/1/2 67/1/2
f 67/1/2 64/1/2 68/1/2
f 69/2/2 70/2/2 71/2/2
f 71/2/2 70/2/2 72/2/2
f 75/2/3 74/2/3 73/2/3
f 76/2/3 74/2/3 75/2/3
f 81/1/3 80/1/3 79/1/3
f 82/1/3 80/1/3 81/1/3
f 85/1/3 78/1/3 77/1/3
f 86/1/3 78/1/3 85/1/3
f 87/1/3 84/1/3 83/1/3
f 88/1/3 84/1/3 87/1/3
f 89/2/3 75/2/3 73/2/3
f 90/2/3 74/2/3 76/2/3
f 91/2/3 89/2/3 73/2/3
f 91/2/3 90/2/3 89/2/3
f 92/2/3 74/2/3 90/2/3
f 92/2/3 90/2/3 91/2/3
f 95/2/3 94/2/3 93/2/3
f 96/2/3 94/2/3 95/2/3
f 97/2/3 94/2/3 96/2/3
f 98/2/3 94/2/3 97/2/3
f 99/2/3 97/2/3 96/2/3
f 100/2/3 94/2/3 98/2/3
f 101/2/3 99/2/3 96/2/3
f 101/2/3 100/2/3 99/2/3
f 102/2/3 94/2/3 100/2/3
f 102/2/3 100/2/3 101/2/3
f 103/2/3 95/2/3 93/2/3
f 104/2/3 101/2/3 96/2/3
f 105/2/3 101/2/3 104/2/3
f 106/2/3 94/2/3 102/2/3
f 107/2/3 105/2/3 104/2/3
f 107/2/3 106/2/3 105/2/3
f 107/2/3 103/2/3 93/2/3
f 107/2/3 104/2/3 103/2/3
f 108/2/3 94/2/3 106/2/3
f 108/2/3 106/2/3 107/2/3
f 109/2/4 110/2/4 111/2/4
f 111/2/4 110/2/4 112/2/4
f 109/2/4 111/2/4 113/2/4
f 113/2/4 111/2/4 114/2/4
f 114/2/4 111/2/4 115/2/4
f 112/2/4 110/2/4 116/2/4
f 109/2/4 113/2/4 117/2/4
f 114/2/4 115/2/4 118/2/4
f 115/2/4 116/2/4 118/2/4
f 118/2/4 116/2/4 119/2/4
f 116/2/4 110/2/4 120/2/4
f 119/2/4 116/2/4 120/2/4
f 118/2/4 119/2/4 121/2/4
f 117/2/4 118/2/4 121/2/4
f 120/2/4 110/2/4 122/2/4
f 109/2/4 117/2/4 123/2/4
f 121/2/4 122/2/4 123/2/4
f 117/2/4 121/2/4 123/2/4
f 122/2/4 110/2/4 124/2/4
f 123/2/4 122/2/4 124/2/4
f 125/2/4 126/2/4 127/2/4
f 127/2/4 126/2/4 128/2/4
f 129/1/4 130/1/4 133/1/4
f 133/1/4 130/1/4 134/1/4
f 131/1/4 132/1/4 135/1/4
f 135/1/4 132/1/4 136/1/4
f 137/1/4 138/1/4 139/1/4
f 139/1/4 138/1/4 140/1/4
f 125/2/4 127/2/4 141/2/4
f 128/2/4 126/2/4 142/2/4
f 125/2/4 141/2/4 143/2/4
f 141/2/4 142/2/4 143/2/4
f 142/2/4 126/2/4 144/2/4
f 143/2/4 142/2/4 144/2/4
f 147/2/5 146/2/5 145/2/5
f 148/2/5 146/2/5 147/2/5
f 151/1/5 150/1/5 149/1/5
f 152/1/5 150/1/5 151/1/5
f 155/1/5 154/1/5 153/1/5
f 156/1/5 154/1/5 155/1/5
f 161/1/5 158/1/5 157/1/5
f 162/1/5 158/1/5 161/1/5
f 163/1/5 160/1/5 159/1/5
f 164/1/5 160/1/5 163/1/5
f 169/1/5 166/1/5 165/1/5
f 170/1/5 166/1/5 169/1/5
f 171/1/5 168/1/5 167/1/5
f 172/1/5 168/1/5 171/1/5
f 175/2/5 174/2/5 173/2/5
f 176/2/5 174/2/5 175/2/5
f 179/2/5 178/2/5 177/2/5
f 180/2/5 178/2/5 179/2/5
f 181/2/6 182/2/6 183/2/6
f 183/2/6 182/2/6 184/2/6
f 185/2/6 186/2/6 187/2/6
f 187/2/6 186/2/6 188/2/6
f 189/1/6 190/1/6 191/1/6
f 191/1/6 190/1/6 192/1/6
f 193/1/6 194/1/6 195/1/6
f 195/1/6 194/1/6 196/1/6
f 197/1/6 198/1/6 201/1/6
f 201/1/6 198/1/6 202/1/6
f 199/1/6 200/1/6 203/1/6
f 203/1/6 200/1/6 204/1/6
f 205/1/6 206/1/6 209/1/6
f 209/1/6 206/1/6 210/1/6
f 207/1/6 208/1/6 211/1/6
f 211/1/6 208/1/6 212/1/6
f 213/2/6 214/2/6 215/2/6
f 215/2/6 214/2/6 216/2/6
